<svg xmlns="http://www.w3.org/2000/svg" width="1800" height="1400"><defs><linearGradient id="roof" x2="0" y2="1"><stop stop-color="#284b68"/><stop offset="1" stop-color="#112d45"/></linearGradient><linearGradient id="stone" x2="0" y2="1"><stop stop-color="#f5e7bc"/><stop offset="1" stop-color="#ab9374"/></linearGradient><pattern id="paving" width="64" height="48" patternUnits="userSpaceOnUse"><rect width="64" height="48" fill="#b5aaa0"/><path d="M0 0H64V48H0Z M32 0V24 M0 24H64 M16 24V48" fill="none" stroke="#938a82" stroke-width="2"/></pattern><radialGradient id="water"><stop stop-color="#abedf0"/><stop offset="1" stop-color="#377b99"/></radialGradient></defs><rect width="1800" height="1400" fill="#34564a"/><rect x="110" y="110" width="1580" height="1180" rx="30" fill="url(#paving)"/><path d="M110 700H1690 M900 110V1290" stroke="#d8c8ae" stroke-width="150"/><path d="M110 700H1690 M900 110V1290" stroke="#a88756" stroke-width="3"/><rect x="235" y="250" width="320" height="230" rx="8" fill="#142c2b" opacity=".45"/><rect x="220" y="230" width="320" height="230" fill="url(#stone)" stroke="#725838" stroke-width="5"/><path d="M204 265 L380 185 L556 265 L528 420 H232Z" fill="url(#roof)" stroke="#c6a66b" stroke-width="5"/><path d="M255 260V412" stroke="#628294" opacity=".5" stroke-width="2"/><path d="M293 260V412" stroke="#628294" opacity=".5" stroke-width="2"/><path d="M331 260V412" stroke="#628294" opacity=".5" stroke-width="2"/><path d="M369 260V412" stroke="#628294" opacity=".5" stroke-width="2"/><path d="M407 260V412" stroke="#628294" opacity=".5" stroke-width="2"/><path d="M445 260V412" stroke="#628294" opacity=".5" stroke-width="2"/><path d="M483 260V412" stroke="#628294" opacity=".5" stroke-width="2"/><rect x="354" y="410" width="52" height="54" rx="20" fill="#332e2b" stroke="#d6b979" stroke-width="4"/><rect x="284" y="470" width="192" height="32" rx="5" fill="#25383c" stroke="#d8b97a"/><text x="380" y="493" text-anchor="middle" font-family="serif" font-size="22" fill="#ffe6b4">FORJA</text><rect x="1235" y="250" width="350" height="240" rx="8" fill="#142c2b" opacity=".45"/><rect x="1220" y="230" width="350" height="240" fill="url(#stone)" stroke="#725838" stroke-width="5"/><path d="M1204 265 L1395 185 L1586 265 L1558 430 H1232Z" fill="url(#roof)" stroke="#c6a66b" stroke-width="5"/><path d="M1255 260V422" stroke="#628294" opacity=".5" stroke-width="2"/><path d="M1293 260V422" stroke="#628294" opacity=".5" stroke-width="2"/><path d="M1331 260V422" stroke="#628294" opacity=".5" stroke-width="2"/><path d="M1369 260V422" stroke="#628294" opacity=".5" stroke-width="2"/><path d="M1407 260V422" stroke="#628294" opacity=".5" stroke-width="2"/><path d="M1445 260V422" stroke="#628294" opacity=".5" stroke-width="2"/><path d="M1483 260V422" stroke="#628294" opacity=".5" stroke-width="2"/><path d="M1521 260V422" stroke="#628294" opacity=".5" stroke-width="2"/><rect x="1369" y="420" width="52" height="54" rx="20" fill="#332e2b" stroke="#d6b979" stroke-width="4"/><rect x="1299" y="480" width="192" height="32" rx="5" fill="#25383c" stroke="#d8b97a"/><text x="1395" y="503" text-anchor="middle" font-family="serif" font-size="22" fill="#ffe6b4">TAVERNA</text><rect x="625" y="175" width="580" height="260" rx="8" fill="#142c2b" opacity=".45"/><rect x="610" y="155" width="580" height="260" fill="url(#stone)" stroke="#725838" stroke-width="5"/><path d="M594 190 L900 110 L1206 190 L1178 375 H622Z" fill="url(#roof)" stroke="#c6a66b" stroke-width="5"/><path d="M645 185V367" stroke="#628294" opacity=".5" stroke-width="2"/><path d="M683 185V367" stroke="#628294" opacity=".5" stroke-width="2"/><path d="M721 185V367" stroke="#628294" opacity=".5" stroke-width="2"/><path d="M759 185V367" stroke="#628294" opacity=".5" stroke-width="2"/><path d="M797 185V367" stroke="#628294" opacity=".5" stroke-width="2"/><path d="M835 185V367" stroke="#628294" opacity=".5" stroke-width="2"/><path d="M873 185V367" stroke="#628294" opacity=".5" stroke-width="2"/><path d="M911 185V367" stroke="#628294" opacity=".5" stroke-width="2"/><path d="M949 185V367" stroke="#628294" opacity=".5" stroke-width="2"/><path d="M987 185V367" stroke="#628294" opacity=".5" stroke-width="2"/><path d="M1025 185V367" stroke="#628294" opacity=".5" stroke-width="2"/><path d="M1063 185V367" stroke="#628294" opacity=".5" stroke-width="2"/><path d="M1101 185V367" stroke="#628294" opacity=".5" stroke-width="2"/><path d="M1139 185V367" stroke="#628294" opacity=".5" stroke-width="2"/><rect x="874" y="365" width="52" height="54" rx="20" fill="#332e2b" stroke="#d6b979" stroke-width="4"/><rect x="804" y="425" width="192" height="32" rx="5" fill="#25383c" stroke="#d8b97a"/><text x="900" y="448" text-anchor="middle" font-family="serif" font-size="22" fill="#ffe6b4">SALÃO DA COROA</text><rect x="255" y="1000" width="320" height="190" rx="8" fill="#142c2b" opacity=".45"/><rect x="240" y="980" width="320" height="190" fill="url(#stone)" stroke="#725838" stroke-width="5"/><path d="M224 1015 L400 935 L576 1015 L548 1130 H252Z" fill="url(#roof)" stroke="#c6a66b" stroke-width="5"/><path d="M275 1010V1122" stroke="#628294" opacity=".5" stroke-width="2"/><path d="M313 1010V1122" stroke="#628294" opacity=".5" stroke-width="2"/><path d="M351 1010V1122" stroke="#628294" opacity=".5" stroke-width="2"/><path d="M389 1010V1122" stroke="#628294" opacity=".5" stroke-width="2"/><path d="M427 1010V1122" stroke="#628294" opacity=".5" stroke-width="2"/><path d="M465 1010V1122" stroke="#628294" opacity=".5" stroke-width="2"/><path d="M503 1010V1122" stroke="#628294" opacity=".5" stroke-width="2"/><rect x="374" y="1120" width="52" height="54" rx="20" fill="#332e2b" stroke="#d6b979" stroke-width="4"/><rect x="304" y="1180" width="192" height="32" rx="5" fill="#25383c" stroke="#d8b97a"/><text x="400" y="1203" text-anchor="middle" font-family="serif" font-size="22" fill="#ffe6b4">MERCADO</text><rect x="1245" y="1000" width="320" height="190" rx="8" fill="#142c2b" opacity=".45"/><rect x="1230" y="980" width="320" height="190" fill="url(#stone)" stroke="#725838" stroke-width="5"/><path d="M1214 1015 L1390 935 L1566 1015 L1538 1130 H1242Z" fill="url(#roof)" stroke="#c6a66b" stroke-width="5"/><path d="M1265 1010V1122" stroke="#628294" opacity=".5" stroke-width="2"/><path d="M1303 1010V1122" stroke="#628294" opacity=".5" stroke-width="2"/><path d="M1341 1010V1122" stroke="#628294" opacity=".5" stroke-width="2"/><path d="M1379 1010V1122" stroke="#628294" opacity=".5" stroke-width="2"/><path d="M1417 1010V1122" stroke="#628294" opacity=".5" stroke-width="2"/><path d="M1455 1010V1122" stroke="#628294" opacity=".5" stroke-width="2"/><path d="M1493 1010V1122" stroke="#628294" opacity=".5" stroke-width="2"/><rect x="1364" y="1120" width="52" height="54" rx="20" fill="#332e2b" stroke="#d6b979" stroke-width="4"/><rect x="1294" y="1180" width="192" height="32" rx="5" fill="#25383c" stroke="#d8b97a"/><text x="1390" y="1203" text-anchor="middle" font-family="serif" font-size="22" fill="#ffe6b4">GUILDA</text><ellipse cx="202" cy="638" rx="50" ry="35" fill="#172f27" opacity=".5"/><circle cx="190" cy="620" r="43" fill="#537858" stroke="#96a26c" stroke-width="6"/><circle cx="178" cy="610" r="25" fill="#6b9469"/><ellipse cx="1622" cy="638" rx="50" ry="35" fill="#172f27" opacity=".5"/><circle cx="1610" cy="620" r="43" fill="#537858" stroke="#96a26c" stroke-width="6"/><circle cx="1598" cy="610" r="25" fill="#6b9469"/><ellipse cx="202" cy="838" rx="50" ry="35" fill="#172f27" opacity=".5"/><circle cx="190" cy="820" r="43" fill="#537858" stroke="#96a26c" stroke-width="6"/><circle cx="178" cy="810" r="25" fill="#6b9469"/><ellipse cx="1622" cy="838" rx="50" ry="35" fill="#172f27" opacity=".5"/><circle cx="1610" cy="820" r="43" fill="#537858" stroke="#96a26c" stroke-width="6"/><circle cx="1598" cy="810" r="25" fill="#6b9469"/><ellipse cx="672" cy="1068" rx="50" ry="35" fill="#172f27" opacity=".5"/><circle cx="660" cy="1050" r="43" fill="#537858" stroke="#96a26c" stroke-width="6"/><circle cx="648" cy="1040" r="25" fill="#6b9469"/><ellipse cx="1152" cy="1068" rx="50" ry="35" fill="#172f27" opacity=".5"/><circle cx="1140" cy="1050" r="43" fill="#537858" stroke="#96a26c" stroke-width="6"/><circle cx="1128" cy="1040" r="25" fill="#6b9469"/><circle cx="900" cy="720" r="160" fill="#d5c6af" stroke="#a28455" stroke-width="7"/><circle cx="900" cy="720" r="122" fill="#7c8991" stroke="#f4dfb2" stroke-width="14"/><circle cx="900" cy="720" r="103" fill="url(#water)"/><ellipse cx="900" cy="720" rx="70" ry="35" fill="none" stroke="#d6ffff" stroke-width="3"/><circle cx="900" cy="720" r="38" fill="#d5c8ac" stroke="#faf0d1" stroke-width="8"/><path d="M900 720V665 M875 690Q900 650 925 690" fill="none" stroke="#baf7ff" stroke-width="8"/><rect x="105" y="100" width="1590" height="34" fill="#d2c2a6" stroke="#816b50" stroke-width="5"/><rect x="105" y="1260" width="1590" height="34" fill="#d2c2a6" stroke="#816b50" stroke-width="5"/><rect x="100" y="105" width="34" height="1190" fill="#d2c2a6"/><rect x="1665" y="105" width="34" height="1190" fill="#d2c2a6"/></svg>